<?xml version="1.0" encoding="UTF-8" standalone="no"?>
<!-- Generator: Adobe Illustrator 19.0.0, SVG Export Plug-In . SVG Version: 6.00 Build 0)  -->

<svg
   xmlns:dc="http://purl.org/dc/elements/1.1/"
   xmlns:cc="http://creativecommons.org/ns#"
   xmlns:rdf="http://www.w3.org/1999/02/22-rdf-syntax-ns#"
   xmlns:svg="http://www.w3.org/2000/svg"
   xmlns="http://www.w3.org/2000/svg"
   xmlns:sodipodi="http://sodipodi.sourceforge.net/DTD/sodipodi-0.dtd"
   xmlns:inkscape="http://www.inkscape.org/namespaces/inkscape"
   version="1.1"
   id="Capa_1"
   x="0px"
   y="0px"
   viewBox="0 0 61.358517 50"
   xml:space="preserve"
   sodipodi:docname="incidencias.svg"
   width="61.358517"
   height="50"
   inkscape:version="0.92.1 r15371"><metadata
   id="metadata67"><rdf:RDF><cc:Work
       rdf:about=""><dc:format>image/svg+xml</dc:format><dc:type
         rdf:resource="http://purl.org/dc/dcmitype/StillImage" /><dc:title></dc:title></cc:Work></rdf:RDF></metadata><defs
   id="defs65" /><sodipodi:namedview
   pagecolor="#ffffff"
   bordercolor="#666666"
   borderopacity="1"
   objecttolerance="10"
   gridtolerance="10"
   guidetolerance="10"
   inkscape:pageopacity="0"
   inkscape:pageshadow="2"
   inkscape:window-width="1304"
   inkscape:window-height="745"
   id="namedview63"
   showgrid="false"
   fit-margin-top="0"
   fit-margin-left="0"
   fit-margin-right="0"
   fit-margin-bottom="0"
   inkscape:zoom="0.4609375"
   inkscape:cx="-2.1694915"
   inkscape:cy="208.61"
   inkscape:window-x="54"
   inkscape:window-y="-8"
   inkscape:window-maximized="1"
   inkscape:current-layer="Capa_1" />
<path
   style="fill:#e9ebf2;stroke-width:0.11984085"
   d="M 51.033867,44.97759 H 3.6888212 C 1.6515268,44.97759 0,43.32606 0,41.28877 V 3.68882 C 0,1.65153 1.6515268,0 3.6888212,0 H 51.033867 c 2.037294,0 3.688821,1.65153 3.688821,3.68882 v 37.59995 c 0,2.03717 -1.651527,3.68882 -3.688821,3.68882 z"
   id="path2"
   inkscape:connector-curvature="0" />
<path
   style="fill:#00aaf0;stroke-width:0.11984085"
   d="M 54.722688,8.87062 V 3.68882 C 54.722688,1.65153 53.071161,0 51.033867,0 H 3.6888212 C 1.6515268,0 0,1.65153 0,3.68882 v 5.1818 h 54.47282 c 0,0 0.249868,0 0.249868,0 z"
   id="path4"
   inkscape:connector-curvature="0" />
<path
   style="fill:#0076ce;stroke-width:0.11984085"
   d="M 34.607761,5.46918 H 18.36585 c -0.536527,0 -0.97143,-0.43491 -0.97143,-0.97143 0,-0.53653 0.434903,-0.97143 0.97143,-0.97143 h 16.241911 c 0.536527,0 0.97143,0.4349 0.97143,0.97143 0,0.53652 -0.434903,0.97143 -0.97143,0.97143 z"
   id="path6"
   inkscape:connector-curvature="0" />
<circle
   style="fill:#53515e;stroke-width:0.11984085"
   cx="4.8726091"
   cy="4.4976354"
   id="circle8"
   r="1.1671301" />
<circle
   style="fill:#ffdc64;stroke-width:0.11984085"
   cx="9.3703566"
   cy="4.4976354"
   id="circle10"
   r="1.1671301" />
<circle
   style="fill:#86e56e;stroke-width:0.11984085"
   cx="13.618714"
   cy="4.4976354"
   id="circle12"
   r="1.1671301" />
<circle
   style="fill:#53515e;stroke-width:0.11984085"
   cx="49.974834"
   cy="4.4976354"
   id="circle14"
   r="1.1671301" />
<path
   style="fill:#c7cad3;stroke-width:0.11984085"
   d="m 21.836441,34.47462 -1.698864,-0.21416 c -0.297804,-1.05292 -0.716768,-2.05479 -1.239873,-2.99063 l 1.052442,-1.353 c 0.5273,-0.6777 0.46726,-1.64206 -0.139974,-2.24917 l -2.699295,-2.6993 c -0.606635,-0.60663 -1.569915,-0.66715 -2.247735,-0.14117 l -1.356239,1.05256 c -0.930804,-0.51999 -1.926801,-0.93739 -2.973372,-1.2346 L 10.320934,22.94401 C 10.214515,22.09206 9.490197,21.45259 8.6315373,21.45259 H 4.8143665 c -0.8579406,0 -1.5818992,0.63839 -1.6891568,1.48962 L 2.9110541,24.64108 C 1.8876132,24.93049 0.91318729,25.33519 0,25.83781 v 7.33977 c 1.5103542,-2.07181 3.9545084,-3.41918 6.7145631,-3.41918 4.5871479,0 8.3056899,3.71854 8.3056899,8.30569 0,2.88445 -1.470927,5.42448 -3.702843,6.9135 h 7.675328 l -0.09396,-0.12104 c 0.51999,-0.9308 0.937276,-1.9268 1.234601,-2.97337 l 1.701141,-0.2126 c 0.851948,-0.10642 1.491419,-0.83074 1.491419,-1.6894 v -3.81729 c 1.2e-4,-0.85806 -0.638272,-1.58189 -1.489502,-1.68927 z"
   id="path16"
   inkscape:connector-curvature="0" />
<path
   style="fill:#b0b6c1;stroke-width:0.11984085"
   d="m 11.31741,44.97759 h 3.672284 c 1.572791,-1.9093 2.517496,-4.35538 2.517496,-7.02219 0,-6.10398 -4.948348,-11.05233 -11.0523221,-11.05233 -2.4102392,0 -4.6384401,0.77382 -6.4548679,2.08344 v 4.19107 c 1.5103542,-2.07181 3.9545084,-3.41918 6.7145631,-3.41918 4.5871479,0 8.3056899,3.71854 8.3056899,8.30569 0,2.88433 -1.470807,5.42448 -3.702843,6.9135 z"
   id="path18"
   inkscape:connector-curvature="0" />
<path
   style="fill:#dfe2ea;stroke-width:0.11984085"
   d="m 29.581396,12.67796 c -2.678803,0 -4.850319,2.17164 -4.850319,4.85044 v 27.44919 h 26.30279 c 2.037294,0 3.688821,-1.65153 3.688821,-3.68882 V 12.67796 Z"
   id="path20"
   inkscape:connector-curvature="0" />
<path
   style="fill:#ffdc64;stroke-width:0.11984085"
   d="M 57.158094,50 H 31.561766 c -2.319879,0 -4.200422,-1.88054 -4.200422,-4.20042 V 19.55851 c 0,-2.31988 1.880543,-4.20043 4.200422,-4.20043 h 25.596328 c 2.319879,0 4.200422,1.88055 4.200422,4.20043 V 45.79958 C 61.358516,48.11946 59.477973,50 57.158094,50 Z"
   id="path22"
   inkscape:connector-curvature="0" />
<path
   style="fill:#ffc850;stroke-width:0.11984085"
   d="m 57.158094,15.35808 h -2.460572 v 9.84098 c 0,10.12115 -8.204784,18.32594 -18.325943,18.32594 h -9.010235 v 2.27446 c 0,2.31988 1.880543,4.20042 4.200422,4.20042 h 25.596328 c 2.319879,0 4.200422,-1.88054 4.200422,-4.20042 V 19.55851 c 0,-2.31976 -1.880543,-4.20043 -4.200422,-4.20043 z"
   id="path24"
   inkscape:connector-curvature="0" />
<path
   style="fill:#ff6b5c;stroke-width:0.11984085"
   d="m 35.522506,40.21523 h 16.479555 c 0.689804,0 1.124467,-0.74265 0.786636,-1.34401 L 44.46551,24.05505 c -0.34646,-0.61682 -1.235799,-0.61298 -1.576866,0.007 l -8.156368,14.81616 c -0.331121,0.60112 0.103902,1.33718 0.79023,1.33718 z"
   id="path26"
   inkscape:connector-curvature="0" />
<path
   style="fill:#ff5450;stroke-width:0.11984085"
   d="M 52.788697,38.8711 44.46551,24.05494 c -0.34646,-0.61683 -1.235799,-0.61299 -1.576986,0.007 l -0.416806,0.75715 1.037701,1.84723 c 3.024184,5.38325 -0.866329,12.03106 -7.040889,12.03106 h -1.636906 l -0.09947,0.18072 c -0.331001,0.60124 0.104022,1.3373 0.79035,1.3373 h 16.479555 c 0.689804,0 1.124467,-0.74265 0.786636,-1.34413 z"
   id="path28"
   inkscape:connector-curvature="0" />
<path
   style="fill:#ffffff;stroke-width:0.11984085"
   d="m 42.849935,36.6749 c 0,-0.25982 0.09527,-0.48129 0.285821,-0.66404 0.190547,-0.18276 0.42891,-0.2742 0.71485,-0.2742 0.24148,0 0.449643,0.0935 0.62509,0.28019 0.175088,0.18695 0.262811,0.40626 0.262811,0.65793 0,0.2519 -0.08772,0.47121 -0.262811,0.65792 -0.175447,0.18695 -0.38361,0.28019 -0.62509,0.28019 -0.277191,0 -0.513158,-0.0932 -0.708139,-0.28019 -0.194981,-0.18671 -0.292532,-0.40602 -0.292532,-0.6578 z m 0.03667,-7.29831 c 0,-0.22734 0.0888,-0.40818 0.266885,-0.54216 0.178084,-0.13398 0.406141,-0.20098 0.684052,-0.20098 0.241,0 0.441374,0.067 0.600882,0.20098 0.159508,0.13398 0.239202,0.31482 0.239202,0.54216 0,0.48727 -0.01222,1.32004 -0.03655,2.49772 -0.02433,1.17792 -0.03655,2.00638 -0.03655,2.4855 0,0.17053 -0.08173,0.30272 -0.244595,0.39595 -0.163223,0.0935 -0.337352,0.1401 -0.522386,0.1401 -0.520349,0 -0.780404,-0.17856 -0.780404,-0.53617 0,-0.47912 -0.02852,-1.3077 -0.08533,-2.4855 -0.05692,-1.17756 -0.08521,-2.01021 -0.08521,-2.4976 z"
   id="path30"
   inkscape:connector-curvature="0" />
<g
   id="g32"
   transform="translate(0,-414.61)">
</g>
<g
   id="g34"
   transform="translate(0,-414.61)">
</g>
<g
   id="g36"
   transform="translate(0,-414.61)">
</g>
<g
   id="g38"
   transform="translate(0,-414.61)">
</g>
<g
   id="g40"
   transform="translate(0,-414.61)">
</g>
<g
   id="g42"
   transform="translate(0,-414.61)">
</g>
<g
   id="g44"
   transform="translate(0,-414.61)">
</g>
<g
   id="g46"
   transform="translate(0,-414.61)">
</g>
<g
   id="g48"
   transform="translate(0,-414.61)">
</g>
<g
   id="g50"
   transform="translate(0,-414.61)">
</g>
<g
   id="g52"
   transform="translate(0,-414.61)">
</g>
<g
   id="g54"
   transform="translate(0,-414.61)">
</g>
<g
   id="g56"
   transform="translate(0,-414.61)">
</g>
<g
   id="g58"
   transform="translate(0,-414.61)">
</g>
<g
   id="g60"
   transform="translate(0,-414.61)">
</g>
</svg>