<?xml version="1.0" encoding="UTF-8" standalone="no"?>
<!-- Generator: Adobe Illustrator 19.0.0, SVG Export Plug-In . SVG Version: 6.00 Build 0)  -->

<svg
   xmlns:dc="http://purl.org/dc/elements/1.1/"
   xmlns:cc="http://creativecommons.org/ns#"
   xmlns:rdf="http://www.w3.org/1999/02/22-rdf-syntax-ns#"
   xmlns:svg="http://www.w3.org/2000/svg"
   xmlns="http://www.w3.org/2000/svg"
   xmlns:sodipodi="http://sodipodi.sourceforge.net/DTD/sodipodi-0.dtd"
   xmlns:inkscape="http://www.inkscape.org/namespaces/inkscape"
   version="1.1"
   id="Capa_1"
   x="0px"
   y="0px"
   viewBox="0 0 49.618431 50"
   xml:space="preserve"
   sodipodi:docname="informacion.svg"
   width="49.618431"
   height="50"
   inkscape:version="0.92.1 r15371"><metadata
   id="metadata91"><rdf:RDF><cc:Work
       rdf:about=""><dc:format>image/svg+xml</dc:format><dc:type
         rdf:resource="http://purl.org/dc/dcmitype/StillImage" /><dc:title></dc:title></cc:Work></rdf:RDF></metadata><defs
   id="defs89" /><sodipodi:namedview
   pagecolor="#ffffff"
   bordercolor="#666666"
   borderopacity="1"
   objecttolerance="10"
   gridtolerance="10"
   guidetolerance="10"
   inkscape:pageopacity="0"
   inkscape:pageshadow="2"
   inkscape:window-width="1304"
   inkscape:window-height="745"
   id="namedview87"
   showgrid="false"
   fit-margin-top="0"
   fit-margin-left="0"
   fit-margin-right="0"
   fit-margin-bottom="0"
   inkscape:zoom="0.4609375"
   inkscape:cx="-4.1235015"
   inkscape:cy="256"
   inkscape:window-x="54"
   inkscape:window-y="-8"
   inkscape:window-maximized="1"
   inkscape:current-layer="Capa_1" />
<circle
   style="fill:#fde57f;stroke-width:0.09765625"
   cx="24.618164"
   cy="25.381836"
   r="24.618164"
   id="circle2" />
<path
   style="fill:#5f6ab9;stroke-width:0.09765625"
   d="M 26.710253,0 H 8.051757 C 5.3112295,0 3.0817373,2.22959 3.0817373,4.97002 c 0,1.72461 0,20.08242 0,32.34297 C 7.2819326,44.87881 15.351562,50 24.618456,50 c 2.429102,0 4.775293,-0.35352 6.991797,-1.00898 0.04522,-0.26895 0.07002,-0.54483 0.07002,-0.82637 0,-15.85254 0,-27.75332 0,-43.19463 C 31.68037,2.22959 29.45078,0 26.710253,0 Z"
   id="path4"
   inkscape:connector-curvature="0" />
<path
   style="fill:#524fa1;stroke-width:0.09765625"
   d="M 8.796288,4.97002 C 8.796288,2.22959 11.025878,0 13.766308,0 H 8.051757 C 5.3112295,0 3.0817373,2.22959 3.0817373,4.97002 c 0,1.72461 0,20.08242 0,32.34297 1.469336,2.64668 3.4125977,4.99355 5.7145507,6.92734 0,-13.95693 0,-25.1292 0,-39.27031 z"
   id="path6"
   inkscape:connector-curvature="0" />
<g
   id="g12"
   transform="matrix(0.09765625,0,0,0.09765625,-0.19082131,0)">
	<path
   style="fill:#6d85d2"
   d="m 211.488,36.408 h -34.113 c -4.535,0 -8.211,-3.676 -8.211,-8.211 0,-4.535 3.676,-8.211 8.211,-8.211 h 34.113 c 4.535,0 8.211,3.676 8.211,8.211 0,4.535 -3.676,8.211 -8.211,8.211 z"
   id="path8"
   inkscape:connector-curvature="0" />
	<path
   style="fill:#6d85d2"
   d="m 148.537,36.404 c -4.579,0 -8.211,-3.721 -8.211,-8.211 0,-5.128 4.706,-9.051 9.82,-8.046 4.001,0.83 6.602,4.257 6.602,8.046 0,4.539 -3.671,8.211 -8.211,8.211 z"
   id="path10"
   inkscape:connector-curvature="0" />
</g>
<path
   style="fill:#daecf7;stroke-width:0.09765625"
   d="m 24.618456,50 c 1.244922,0 2.467871,-0.0935 3.662891,-0.27227 0.39873,-0.40078 0.645312,-0.95312 0.645312,-1.56318 0,-1.19863 0,-38.96836 0,-43.19453 0,-1.22412 -0.992285,-2.21641 -2.216406,-2.21641 h -2.325391 c -0.45791,0 -0.829101,0.3711 -0.829394,0.82891 v 0.52656 c 0,0.70567 -0.577344,1.28301 -1.283008,1.28301 v 0 h -9.78291 -9.8e-5 c -0.705566,0 -1.283008,-0.57734 -1.283008,-1.28301 V 3.58252 C 11.206151,3.12471 10.834862,2.75361 10.37705,2.75361 H 8.051757 c -1.2241212,0 -2.2164064,0.99229 -2.2164064,2.21641 V 41.29375 C 10.350683,46.61943 17.089355,50 24.618456,50 Z"
   id="path14"
   inkscape:connector-curvature="0" />
<path
   style="fill:#b2d9ed;stroke-width:0.09765625"
   d="m 8.796288,4.97002 c 0,-0.79619 0.189258,-1.54863 0.523438,-2.21641 H 8.051757 c -1.2241212,0 -2.2164064,0.99229 -2.2164064,2.21641 v 36.3207 c 0.8896484,1.04932 1.8639648,2.02627 2.9609374,2.94785 0,-13.95605 0,-25.12802 0,-39.26855 z"
   id="path16"
   inkscape:connector-curvature="0" />
<path
   style="fill:#bbef89;stroke-width:0.09765625"
   d="m 26.710253,2.75361 h -2.325391 c -0.45791,0 -0.829004,0.371 -0.829394,0.82891 v 0.52656 c 0,0.70567 -0.577344,1.28301 -1.283008,1.28301 h -9.8e-5 -9.782812 -9.8e-5 c -0.705566,0 -1.283008,-0.57734 -1.283008,-1.28301 V 3.58252 C 11.206151,3.12471 10.834862,2.75361 10.37705,2.75361 H 8.051757 c -1.2241212,0 -2.2164064,0.99229 -2.2164064,2.21641 v 6.05713 H 28.926659 c 0,-3.32149 0,-5.14697 0,-6.05713 0,-1.22412 -0.992285,-2.21641 -2.216406,-2.21641 z"
   id="path18"
   inkscape:connector-curvature="0" />
<path
   style="fill:#7dd776;stroke-width:0.09765625"
   d="m 8.796288,4.97002 c 0,-0.79619 0.189258,-1.54863 0.523438,-2.21641 H 8.051757 c -1.2241212,0 -2.2164064,0.99229 -2.2164064,2.21641 v 6.05713 H 8.796288 c 0,-1.96758 0,-3.97969 0,-6.05713 z"
   id="path20"
   inkscape:connector-curvature="0" />
<path
   style="fill:#fb6467;stroke-width:0.09765625"
   d="M 42.753124,1.78506 C 36.265429,-1.94443 27.75869,0.36924 24.051366,6.86963 c -3.287207,5.76377 -1.924707,12.92119 2.919239,17.11299 0.255859,0.22138 0.390429,0.55205 0.370117,0.88984 l -0.215821,3.59639 c -0.01211,0.20127 0.210743,0.32998 0.379004,0.21885 l 3.196192,-2.11036 c 0.168652,-0.11132 0.380273,-0.13798 0.570117,-0.0688 6.121484,2.22841 13.143066,-0.18565 16.512988,-6.02246 C 51.565526,13.9352 49.313964,5.55649 42.753124,1.7851 Z"
   id="path22"
   inkscape:connector-curvature="0" />
<g
   id="g28"
   transform="matrix(0.09765625,0,0,0.09765625,-0.19082131,0)">
	<path
   style="fill:#daecf7"
   d="m 388.183,189.601 h -3.467 v -61.776 c 0,-8.163 -6.617,-14.78 -14.78,-14.78 H 351.69 c -8.163,0 -14.78,6.617 -14.78,14.78 0,8.163 6.617,14.78 14.78,14.78 h 3.467 v 46.997 h -3.467 c -8.163,0 -14.78,6.617 -14.78,14.78 0,8.163 6.617,14.78 14.78,14.78 h 36.493 c 8.163,0 14.78,-6.617 14.78,-14.78 0,-8.164 -6.617,-14.781 -14.78,-14.781 z"
   id="path24"
   inkscape:connector-curvature="0" />
	<circle
   style="fill:#daecf7"
   cx="367.45401"
   cy="76.953003"
   r="17.26"
   id="circle26" />
</g>
<path
   style="fill:#14c0eb;stroke-width:0.09765625"
   d="m 19.959472,22.0709 h -5.292481 c -0.922949,0 -1.671289,0.74824 -1.671289,1.67129 v 3.45078 c 0,0.22236 0.180274,0.40264 0.402637,0.40264 h 7.860742 c 0.205274,0 0.371777,-0.16641 0.371777,-0.37168 v -3.48155 c 0,-0.92314 -0.748242,-1.67148 -1.671386,-1.67148 z"
   id="path30"
   inkscape:connector-curvature="0" />
<path
   style="fill:#00addc;stroke-width:0.09765625"
   d="m 16.300194,23.74229 c 0,-0.92305 0.748145,-1.67139 1.671192,-1.67139 h -3.304395 c -0.927539,0 -1.671289,0.75517 -1.671289,1.67139 v 3.45078 c 9.8e-5,0.22236 0.180274,0.40254 0.402637,0.40254 h 2.901758 z"
   id="path32"
   inkscape:connector-curvature="0" />
<circle
   style="fill:#f4c3b8;stroke-width:0.09765625"
   cx="17.313477"
   cy="18.004883"
   r="2.7952147"
   id="circle34" />
<path
   style="fill:#eab5ac;stroke-width:0.09765625"
   d="m 17.313378,15.21006 c -2.133887,-0.002 -3.501563,2.32099 -2.420996,4.19258 1.080371,1.87129 3.776367,1.84882 4.841406,-3e-4 -2.151855,-0.002 -3.493848,-2.32841 -2.42041,-4.19228 z"
   id="path36"
   inkscape:connector-curvature="0" />
<path
   style="fill:#b2d9ed;stroke-width:0.09765625"
   d="m 17.897069,47.44912 h -1.16748 c -0.442871,0 -0.801856,-0.35898 -0.801856,-0.80185 0,-0.44288 0.358985,-0.80186 0.801856,-0.80186 h 1.16748 c 0.442871,0 0.801856,0.35898 0.801856,0.80186 0,0.44287 -0.358985,0.80185 -0.801856,0.80185 z"
   id="path38"
   inkscape:connector-curvature="0" />
<g
   id="g52"
   transform="matrix(0.09765625,0,0,0.09765625,-0.19082131,0)">
	<path
   style="fill:#ffffff"
   d="M 248.876,328.155 H 136.074 c -4.535,0 -8.211,-3.676 -8.211,-8.211 0,-4.535 3.676,-8.211 8.211,-8.211 h 112.803 c 4.535,0 8.211,3.676 8.211,8.211 0,4.535 -3.677,8.211 -8.212,8.211 z"
   id="path40"
   inkscape:connector-curvature="0" />
	<path
   style="fill:#ffffff"
   d="m 106.42,328.155 c -4.535,0 -8.215,-3.676 -8.215,-8.211 0,-4.535 3.672,-8.211 8.207,-8.211 h 0.008 c 4.535,0 8.211,3.676 8.211,8.211 0,4.535 -3.676,8.211 -8.211,8.211 z"
   id="path42"
   inkscape:connector-curvature="0" />
	<path
   style="fill:#ffffff"
   d="M 248.876,362.143 H 136.074 c -4.535,0 -8.211,-3.676 -8.211,-8.211 0,-4.535 3.676,-8.211 8.211,-8.211 h 112.803 c 4.535,0 8.211,3.676 8.211,8.211 0,4.535 -3.677,8.211 -8.212,8.211 z"
   id="path44"
   inkscape:connector-curvature="0" />
	<path
   style="fill:#ffffff"
   d="M 248.876,396.131 H 136.074 c -4.535,0 -8.211,-3.676 -8.211,-8.211 0,-4.535 3.676,-8.211 8.211,-8.211 h 112.803 c 4.535,0 8.211,3.676 8.211,8.211 0,4.535 -3.677,8.211 -8.212,8.211 z"
   id="path46"
   inkscape:connector-curvature="0" />
	<path
   style="fill:#ffffff"
   d="M 248.876,430.119 H 136.074 c -4.535,0 -8.211,-3.676 -8.211,-8.211 0,-4.535 3.676,-8.211 8.211,-8.211 h 112.803 c 4.535,0 8.211,3.676 8.211,8.211 0,4.535 -3.677,8.211 -8.212,8.211 z"
   id="path48"
   inkscape:connector-curvature="0" />
	<path
   style="fill:#ffffff"
   d="m 106.42,396.131 c -4.535,0 -8.215,-3.676 -8.215,-8.211 0,-4.535 3.672,-8.211 8.207,-8.211 h 0.008 c 4.535,0 8.211,3.676 8.211,8.211 0,4.535 -3.676,8.211 -8.211,8.211 z"
   id="path50"
   inkscape:connector-curvature="0" />
</g>
<path
   style="fill:#ef525a;stroke-width:0.09765625"
   d="m 41.385155,24.11836 c -7.223242,0 -13.078808,-5.85557 -13.078808,-13.07881 0,-4.56016 2.334277,-8.57441 5.872656,-10.91514 -4.110938,0.55079 -7.948438,2.92422 -10.127637,6.74512 -3.287207,5.76377 -1.924707,12.92119 2.919239,17.11299 0.255859,0.22139 0.390429,0.55205 0.370117,0.88984 l -0.215821,3.59639 c -0.01211,0.20127 0.210743,0.32998 0.379004,0.21885 l 3.196192,-2.11035 c 0.168652,-0.11133 0.380273,-0.13799 0.570117,-0.0688 4.941601,1.79892 10.469433,0.57187 14.189648,-3.03838 -1.282324,0.42031 -2.651757,0.64834 -4.074707,0.64834 z"
   id="path54"
   inkscape:connector-curvature="0" />
<g
   id="g56"
   transform="translate(-1.95401,-462)">
</g>
<g
   id="g58"
   transform="translate(-1.95401,-462)">
</g>
<g
   id="g60"
   transform="translate(-1.95401,-462)">
</g>
<g
   id="g62"
   transform="translate(-1.95401,-462)">
</g>
<g
   id="g64"
   transform="translate(-1.95401,-462)">
</g>
<g
   id="g66"
   transform="translate(-1.95401,-462)">
</g>
<g
   id="g68"
   transform="translate(-1.95401,-462)">
</g>
<g
   id="g70"
   transform="translate(-1.95401,-462)">
</g>
<g
   id="g72"
   transform="translate(-1.95401,-462)">
</g>
<g
   id="g74"
   transform="translate(-1.95401,-462)">
</g>
<g
   id="g76"
   transform="translate(-1.95401,-462)">
</g>
<g
   id="g78"
   transform="translate(-1.95401,-462)">
</g>
<g
   id="g80"
   transform="translate(-1.95401,-462)">
</g>
<g
   id="g82"
   transform="translate(-1.95401,-462)">
</g>
<g
   id="g84"
   transform="translate(-1.95401,-462)">
</g>
</svg>