<?xml version="1.0" encoding="UTF-8" standalone="no"?>
<!-- Generator: Adobe Illustrator 19.0.0, SVG Export Plug-In . SVG Version: 6.00 Build 0)  -->

<svg
   xmlns:dc="http://purl.org/dc/elements/1.1/"
   xmlns:cc="http://creativecommons.org/ns#"
   xmlns:rdf="http://www.w3.org/1999/02/22-rdf-syntax-ns#"
   xmlns:svg="http://www.w3.org/2000/svg"
   xmlns="http://www.w3.org/2000/svg"
   xmlns:sodipodi="http://sodipodi.sourceforge.net/DTD/sodipodi-0.dtd"
   xmlns:inkscape="http://www.inkscape.org/namespaces/inkscape"
   version="1.1"
   id="Layer_1"
   x="0px"
   y="0px"
   viewBox="0 0 50 50"
   xml:space="preserve"
   sodipodi:docname="nosotros.svg"
   width="50"
   height="50"
   inkscape:version="0.92.1 r15371"><metadata
   id="metadata79"><rdf:RDF><cc:Work
       rdf:about=""><dc:format>image/svg+xml</dc:format><dc:type
         rdf:resource="http://purl.org/dc/dcmitype/StillImage" /><dc:title></dc:title></cc:Work></rdf:RDF></metadata><defs
   id="defs77" /><sodipodi:namedview
   pagecolor="#ffffff"
   bordercolor="#666666"
   borderopacity="1"
   objecttolerance="10"
   gridtolerance="10"
   guidetolerance="10"
   inkscape:pageopacity="0"
   inkscape:pageshadow="2"
   inkscape:window-width="1304"
   inkscape:window-height="745"
   id="namedview75"
   showgrid="false"
   fit-margin-top="0"
   fit-margin-left="0"
   fit-margin-right="0"
   fit-margin-bottom="0"
   inkscape:zoom="0.4609375"
   inkscape:cx="-2.1694915"
   inkscape:cy="256"
   inkscape:window-x="54"
   inkscape:window-y="-8"
   inkscape:window-maximized="1"
   inkscape:current-layer="Layer_1" />
<path
   style="fill:#ffca4f;stroke-width:0.09765625"
   d="M 25.000098,50 C 38.769531,50 50,38.76953 50,24.9999 50,11.23047 38.769531,0 25.000098,0 11.230566,0 0,11.23047 0,24.9999 0,38.76953 11.230566,50 25.000098,50 Z"
   id="path2"
   inkscape:connector-curvature="0" />
<path
   style="fill:#f0b97d;stroke-width:0.09765625"
   d="m 22.667383,19.10693 h 0.92666 2.811133 0.926758 l 0.377832,3.93135 0.671093,0.53858 1.415528,0.90097 -4.796778,11.33028 -4.796582,-11.33028 1.415528,-0.90097 0.671386,-0.53829 z"
   id="path4"
   inkscape:connector-curvature="0" />
<path
   style="fill:#15bdb1;stroke-width:0.09765625"
   d="M 21.194824,23.84648 14.356348,26.029 c 0,0 -0.665332,0.34639 -1.016309,1.35147 -2.037012,2.18252 -8.5617187,9.31523 -8.5617187,11.12607 0,2.1459 5.5691407,7.31446 5.5691407,7.31446 h 2.643359 v 1.85214 H 24.999707 37.008789 V 45.821 h 2.643555 c 0,0 5.569043,-5.16856 5.569043,-7.31446 0,-1.81133 -6.525684,-8.94453 -8.562012,-11.12675 -0.351465,-1.0044 -1.016211,-1.35069 -1.016211,-1.35069 l -6.791797,-2.15273 -0.576269,1.69013 -3.275391,-0.15898 -3.227734,0.15674 z M 12.99082,36.35039 v 0 l 0.847559,3.38086 -0.149902,3.57168 -0.697657,-0.79844 -2.433886,-3.47666 z m 24.017969,6.1543 v 0 l -0.697266,0.75527 -0.150195,-4.14902 0.847461,-2.76094 2.434277,2.67793 z"
   id="path6"
   inkscape:connector-curvature="0" />
<path
   style="fill:#f1f1f1;stroke-width:0.09765625"
   d="m 21.128516,23.86777 -0.92002,0.29346 4.791113,11.64697 4.833692,-11.6207 -0.982031,-0.31113 -2.405274,1.48642 h -2.883691 z"
   id="path8"
   inkscape:connector-curvature="0" />
<path
   style="fill:#20d0c2;stroke-width:0.09765625"
   d="m 21.194824,23.84648 -1.475195,0.4709 -0.283301,3.74268 c 0,0 0.07803,0.30762 0.312207,0.27998 l 1.33125,0.50039 c 0,0 0.08711,0.0873 0.0092,0.19736 l -1.139356,0.78067 3.936328,7.41855 c 0.368555,0.0213 0.739942,0.032 1.113575,0.032 0.374023,0 0.745215,-0.0107 1.113672,-0.032 l 3.936328,-7.41855 -1.139258,-0.78067 c -0.07793,-0.11006 0.0091,-0.19736 0.0091,-0.19736 l 1.331152,-0.50039 c 0.234375,0.0276 0.312403,-0.27998 0.312403,-0.27998 l -0.282618,-3.73057 -1.429394,-0.45322 -3.851563,11.29521 -3.804492,-11.325 z"
   id="path10"
   inkscape:connector-curvature="0" />
<path
   style="fill:#fed198;stroke-width:0.09765625"
   d="m 30.432129,11.1124 c 0,0.36524 0.133398,0.72305 0.123437,1.07354 1.25,-0.23203 0.646485,3.48076 -0.06074,3.99131 -0.05615,0.0405 -0.194433,-0.05 -0.311035,-0.12442 -0.245312,1.36572 -2.338965,5.01455 -3.670117,6.55039 -0.369727,0.42657 -2.630274,0.41934 -2.996387,0.0163 -1.363476,-1.50098 -3.454394,-5.19316 -3.700976,-6.5667 -0.116895,0.0745 -0.255079,0.16494 -0.311133,0.12442 -0.707227,-0.51055 -1.31084,-4.22334 -0.06084,-3.99131 -0.0099,-0.35049 0.123242,-0.7083 0.123242,-1.07354 0.06924,-2.88301 2.681445,-4.32236 5.432422,-4.33457 2.750586,0.0122 5.363086,1.45156 5.432129,4.33457 z"
   id="path12"
   inkscape:connector-curvature="0" />
<path
   style="fill:#666666;stroke-width:0.09765625"
   d="m 28.757227,7.4166 c 0.394043,-0.0458 1.818066,0.39033 1.988867,1.89688 0.171093,1.50664 0.08916,2.89463 0.08916,2.89463 0,0 -0.834082,0.21074 -0.93916,1.06572 -0.104883,0.85517 -0.03008,0.85517 -0.03008,0.85517 l -0.302051,-0.0678 -0.215235,-1.46611 c -1.248046,-0.78194 0.0094,-1.94033 -1.238964,-2.21162 -3.371289,2.40283 -6.345801,1.9917 -7.687207,0.86123 0,0 0.313183,1.18232 0.07168,1.60371 -0.241406,0.42168 -0.09727,1.08593 -0.09727,1.08593 l -0.313575,-0.0152 c 0,0 0.05674,-1.74101 -0.639355,-1.7334 -2.644629,-4.3666 5.728223,-9.79092 9.313184,-4.76914 z"
   id="path14"
   inkscape:connector-curvature="0" />
<g
   id="g20"
   transform="scale(0.09765625)">
	<path
   style="fill:#ffffff"
   d="m 227.915,230.164 c 1.003,0.071 -11.69,14.279 -11.69,14.279 l 10.804,36.723 28.969,-21.454 c -15.935,-7.759 -25.444,-17.81 -28.083,-29.548 z"
   id="path16"
   inkscape:connector-curvature="0" />
	<path
   style="fill:#ffffff"
   d="m 284.083,230.164 c -1.001,0.071 11.688,14.279 11.688,14.279 l -10.806,36.723 -28.967,-21.454 c 15.935,-7.759 25.445,-17.81 28.085,-29.548 z"
   id="path18"
   inkscape:connector-curvature="0" />
</g>
<path
   style="fill:#ecf0f1;stroke-width:0.09765625"
   d="m 12.746875,43.73535 c 1.594922,0 2.887598,0.80254 2.887598,1.79238 0,0.98975 -1.292676,1.79239 -2.887598,1.79239 -1.594922,0 -2.8875977,-0.80274 -2.8875977,-1.79239 0,-0.98984 1.2926757,-1.79238 2.8875977,-1.79238 z m 0,0.47344 v 0 c -1.241211,0 -2.24707,0.59101 -2.24707,1.31894 0,0.72832 1.005859,1.31934 2.24707,1.31934 1.241211,0 2.247266,-0.59102 2.247266,-1.31934 -9.8e-5,-0.72793 -1.006055,-1.31894 -2.247266,-1.31894 z"
   id="path22"
   inkscape:connector-curvature="0" />
<path
   style="fill:#377bb9;stroke-width:0.09765625"
   d="m 12.746875,46.84687 c 1.237695,0 2.247266,-0.59248 2.247266,-1.31894 0,-0.72656 -1.009571,-1.31914 -2.247266,-1.31914 -1.237695,0 -2.24707,0.59258 -2.24707,1.31914 -9.8e-5,0.72637 1.009375,1.31894 2.24707,1.31894 z"
   id="path24"
   inkscape:connector-curvature="0" />
<path
   style="fill:#fbb429;stroke-width:0.09765625"
   d="m 11.832422,46.28125 v 1.44443 c 0,0.17911 -0.146289,0.32569 -0.325781,0.32569 h -0.574317 c -0.179199,0 -0.325781,-0.14658 -0.325781,-0.32569 v -2.23525 c 0,-0.0342 0.0054,-0.0671 0.01523,-0.0981 v -0.49209 c 0,-0.41827 0.342188,-0.76036 0.760547,-0.76036 h 4.702149 c 0.418261,0 0.760156,0.342 0.760156,0.76036 v 0.4914 c 0.01025,0.0312 0.01553,0.0644 0.01553,0.0989 v 2.23525 c 0,0.1791 -0.146386,0.32568 -0.325781,0.32568 h -0.574219 c -0.179297,0 -0.325781,-0.14658 -0.325781,-0.32568 V 46.28136 H 15.18418 v 1.44443 c 0,0.1791 -0.146289,0.32568 -0.325782,0.32568 h -0.574316 c -0.179297,0 -0.325781,-0.14658 -0.325781,-0.32568 v -1.44443 h -0.45 v 1.44443 c 0,0.1791 -0.146582,0.32568 -0.325781,0.32568 h -0.574317 c -0.179492,0 -0.325781,-0.14658 -0.325781,-0.32568 v -1.44443 l -0.45,-10e-5 z"
   id="path26"
   inkscape:connector-curvature="0" />
<path
   style="fill:#ecf0f1;stroke-width:0.09765625"
   d="m 37.253418,43.73535 c -1.594629,0 -2.8875,0.80254 -2.8875,1.79238 0,0.98975 1.292773,1.79239 2.8875,1.79239 1.594922,0 2.887793,-0.80274 2.887793,-1.79239 0,-0.98984 -1.292969,-1.79238 -2.887793,-1.79238 z m 0,0.47344 v 0 c 1.241211,0 2.247266,0.59101 2.247266,1.31894 0,0.72832 -1.005957,1.31934 -2.247266,1.31934 -1.241211,0 -2.246973,-0.59102 -2.246973,-1.31934 -9.7e-5,-0.72793 1.005664,-1.31894 2.246973,-1.31894 z"
   id="path28"
   inkscape:connector-curvature="0" />
<path
   style="fill:#333333;stroke-width:0.09765625"
   d="m 37.253613,46.84687 c 1.237598,0 2.247266,-0.59248 2.247266,-1.31894 0,-0.72656 -1.009668,-1.31914 -2.247266,-1.31914 -1.237695,0 -2.24707,0.59258 -2.24707,1.31914 -9.8e-5,0.72637 1.009375,1.31894 2.24707,1.31894 z"
   id="path30"
   inkscape:connector-curvature="0" />
<path
   style="fill:#fbb429;stroke-width:0.09765625"
   d="m 38.167969,46.28125 v 1.44443 c 0,0.17911 0.146289,0.32569 0.325781,0.32569 h 0.574316 c 0.179395,0 0.325684,-0.14658 0.325684,-0.32569 v -2.23525 c 0,-0.0342 -0.0054,-0.0671 -0.01523,-0.0981 v -0.49209 c 0,-0.41827 -0.341993,-0.76036 -0.760352,-0.76036 h -4.702246 c -0.418262,0 -0.760352,0.342 -0.760352,0.76036 v 0.4914 c -0.01025,0.0312 -0.01543,0.0644 -0.01543,0.0989 v 2.23525 c 0,0.1791 0.146289,0.32568 0.325683,0.32568 h 0.574414 c 0.179102,0 0.325684,-0.14658 0.325684,-0.32568 v -1.44443 h 0.450098 v 1.44443 c 0,0.1791 0.146582,0.32568 0.325781,0.32568 h 0.574316 c 0.179492,0 0.325782,-0.14658 0.325782,-0.32568 v -1.44443 h 0.450195 v 1.44443 c 0,0.1791 0.146387,0.32568 0.325781,0.32568 h 0.574316 c 0.1792,0 0.325489,-0.14658 0.325489,-0.32568 v -1.44443 l 0.450293,-10e-5 z"
   id="path32"
   inkscape:connector-curvature="0" />
<path
   style="fill:#ffffff;stroke-width:0.09765625"
   d="m 12.118945,29.80459 h 25.76211 c 0.822754,0 1.4958,0.67314 1.4958,1.49561 v 14.23847 c 0,0.82256 -0.673046,1.4959 -1.4958,1.4959 h -25.76211 c -0.822754,0 -1.495898,-0.67334 -1.495898,-1.4959 V 31.3002 c 0,-0.82247 0.673144,-1.49561 1.495898,-1.49561 z"
   id="path34"
   inkscape:connector-curvature="0" />
<path
   style="fill:#c8cacc;stroke-width:0.09765625"
   d="m 11.190625,47.76826 h 27.61875 c 0.312207,0 0.567578,0.25547 0.567578,0.56807 v 1.09472 c 0,0.3127 -0.255469,0.56788 -0.567578,0.56788 h -27.61875 c -0.312305,0 -0.567773,-0.25518 -0.567773,-0.56788 v -1.09472 c 0,-0.3126 0.255468,-0.56807 0.567773,-0.56807 z"
   id="path36"
   inkscape:connector-curvature="0" />
<g
   id="g42"
   transform="scale(0.09765625)">
	<path
   style="fill:#ecf0f1"
   d="m 152.027,478.126 h 24.998 v 17.044 h -24.998 z m 182.952,0 v 0 h 24.998 v 17.044 h -24.998 z"
   id="path38"
   inkscape:connector-curvature="0" />
	<path
   style="fill:#ecf0f1"
   d="m 228.266,371.341 h 55.466 c 0.745,0 1.351,0.606 1.351,1.351 v 12.556 c 0,0.744 -0.606,1.349 -1.351,1.349 h -55.466 c -0.744,0 -1.349,-0.605 -1.349,-1.349 v -12.556 c 0.001,-0.745 0.605,-1.351 1.349,-1.351 z"
   id="path40"
   inkscape:connector-curvature="0" />
</g>
<g
   id="g44"
   transform="translate(0,-462)">
</g>
<g
   id="g46"
   transform="translate(0,-462)">
</g>
<g
   id="g48"
   transform="translate(0,-462)">
</g>
<g
   id="g50"
   transform="translate(0,-462)">
</g>
<g
   id="g52"
   transform="translate(0,-462)">
</g>
<g
   id="g54"
   transform="translate(0,-462)">
</g>
<g
   id="g56"
   transform="translate(0,-462)">
</g>
<g
   id="g58"
   transform="translate(0,-462)">
</g>
<g
   id="g60"
   transform="translate(0,-462)">
</g>
<g
   id="g62"
   transform="translate(0,-462)">
</g>
<g
   id="g64"
   transform="translate(0,-462)">
</g>
<g
   id="g66"
   transform="translate(0,-462)">
</g>
<g
   id="g68"
   transform="translate(0,-462)">
</g>
<g
   id="g70"
   transform="translate(0,-462)">
</g>
<g
   id="g72"
   transform="translate(0,-462)">
</g>
</svg>