<?xml version="1.0" encoding="UTF-8" standalone="no"?>
<!-- Generator: Adobe Illustrator 19.0.0, SVG Export Plug-In . SVG Version: 6.00 Build 0)  -->

<svg
   xmlns:dc="http://purl.org/dc/elements/1.1/"
   xmlns:cc="http://creativecommons.org/ns#"
   xmlns:rdf="http://www.w3.org/1999/02/22-rdf-syntax-ns#"
   xmlns:svg="http://www.w3.org/2000/svg"
   xmlns="http://www.w3.org/2000/svg"
   xmlns:sodipodi="http://sodipodi.sourceforge.net/DTD/sodipodi-0.dtd"
   xmlns:inkscape="http://www.inkscape.org/namespaces/inkscape"
   version="1.1"
   id="Layer_1"
   x="0px"
   y="0px"
   viewBox="0 0 53.571503 50"
   xml:space="preserve"
   sodipodi:docname="noticias.svg"
   width="53.571503"
   height="50"
   inkscape:version="0.92.1 r15371"><metadata
   id="metadata69"><rdf:RDF><cc:Work
       rdf:about=""><dc:format>image/svg+xml</dc:format><dc:type
         rdf:resource="http://purl.org/dc/dcmitype/StillImage" /><dc:title></dc:title></cc:Work></rdf:RDF></metadata><defs
   id="defs67" /><sodipodi:namedview
   pagecolor="#ffffff"
   bordercolor="#666666"
   borderopacity="1"
   objecttolerance="10"
   gridtolerance="10"
   guidetolerance="10"
   inkscape:pageopacity="0"
   inkscape:pageshadow="2"
   inkscape:window-width="1304"
   inkscape:window-height="745"
   id="namedview65"
   showgrid="false"
   fit-margin-top="0"
   fit-margin-left="0"
   fit-margin-right="0"
   fit-margin-bottom="0"
   inkscape:zoom="0.4609375"
   inkscape:cx="-2.1694915"
   inkscape:cy="238.933"
   inkscape:window-x="54"
   inkscape:window-y="-8"
   inkscape:window-maximized="1"
   inkscape:current-layer="Layer_1" />
<polygon
   style="fill:#ece7ea"
   points="0,73.956 256,51.2 512,73.956 512,494.933 0,494.933 "
   id="polygon2"
   transform="matrix(0.10463184,0,0,0.10463184,0,-1.7857516)" />
<polygon
   style="fill:#f14742"
   points="420.978,45.511 455.111,17.067 512,17.067 512,73.956 455.111,73.956 "
   id="polygon4"
   transform="matrix(0.10463184,0,0,0.10463184,0,-1.7857516)" />
<rect
   y="1.2302736e-005"
   style="fill:#1b4145;stroke-width:0.10463184"
   width="47.619102"
   height="5.9524007"
   id="rect6"
   x="0" />
<path
   style="fill:#d6ced1;stroke-width:0.10463184"
   d="M 46.428601,25.297568 H 7.142902 c -0.4932345,0 -0.8928235,-0.3998 -0.8928235,-0.89282 0,-0.49313 0.3996936,-0.89282 0.8928235,-0.89282 h 39.285804 c 0.493234,0 0.892823,0.39979 0.892823,0.89282 0,0.49313 -0.399693,0.89282 -0.892928,0.89282 z"
   id="path8"
   inkscape:connector-curvature="0" />
<g
   id="g16"
   transform="matrix(0.10463184,0,0,0.10463184,0,-1.7857516)">
	<path
   style="fill:#8b7e7f"
   d="M 233.244,304.356 H 68.267 c -4.714,0 -8.533,-3.821 -8.533,-8.533 0,-4.712 3.82,-8.533 8.533,-8.533 h 164.978 c 4.714,0 8.533,3.821 8.533,8.533 0,4.712 -3.82,8.533 -8.534,8.533 z"
   id="path10"
   inkscape:connector-curvature="0" />
	<path
   style="fill:#8b7e7f"
   d="M 233.244,349.867 H 68.267 c -4.714,0 -8.533,-3.821 -8.533,-8.533 0,-4.712 3.82,-8.533 8.533,-8.533 h 164.978 c 4.714,0 8.533,3.821 8.533,8.533 0,4.712 -3.82,8.533 -8.534,8.533 z"
   id="path12"
   inkscape:connector-curvature="0" />
	<path
   style="fill:#8b7e7f"
   d="M 233.244,395.378 H 68.267 c -4.714,0 -8.533,-3.821 -8.533,-8.533 0,-4.712 3.82,-8.533 8.533,-8.533 h 164.978 c 4.714,0 8.533,3.821 8.533,8.533 0,4.712 -3.82,8.533 -8.534,8.533 z"
   id="path14"
   inkscape:connector-curvature="0" />
</g>
<rect
   x="29.166756"
   y="29.166637"
   style="fill:#f14742;stroke-width:0.10463184"
   width="17.261951"
   height="14.2857"
   id="rect18" />
<g
   id="g32"
   transform="matrix(0.10463184,0,0,0.10463184,0,-1.7857516)">
	<path
   style="fill:#8b7e7f"
   d="M 233.244,440.889 H 68.267 c -4.714,0 -8.533,-3.821 -8.533,-8.533 0,-4.712 3.82,-8.533 8.533,-8.533 h 164.978 c 4.714,0 8.533,3.821 8.533,8.533 0,4.712 -3.82,8.533 -8.534,8.533 z"
   id="path20"
   inkscape:connector-curvature="0" />
	<path
   style="fill:#8b7e7f"
   d="m 395.04,213.333 c -15.366,0 -27.344,-6.725 -31.263,-17.55 -1.603,-4.432 0.688,-9.324 5.121,-10.927 4.426,-1.604 9.323,0.687 10.927,5.12 1.361,3.764 7.475,6.292 15.213,6.292 5.786,0 15.576,-1.799 15.576,-8.54 0,-4.619 -2.111,-6.216 -16.959,-8.645 -6.599,-1.079 -13.421,-2.195 -19.169,-5.219 -7.911,-4.163 -12.092,-11.167 -12.092,-20.257 0,-15.077 13.423,-25.607 32.643,-25.607 15.359,0 27.336,6.721 31.259,17.54 1.607,4.431 -0.684,9.324 -5.114,10.931 -4.434,1.611 -9.324,-0.685 -10.929,-5.114 -1.364,-3.761 -7.477,-6.29 -15.214,-6.29 -5.786,0 -15.576,1.799 -15.576,8.54 0,4.611 2.109,6.205 16.949,8.632 6.6,1.08 13.426,2.196 19.175,5.221 7.913,4.164 12.096,11.172 12.096,20.266 0.001,15.077 -13.423,25.607 -32.643,25.607 z"
   id="path22"
   inkscape:connector-curvature="0" />
	<path
   style="fill:#8b7e7f"
   d="m 319.496,213.333 c -3.187,0 -6.143,-1.786 -7.609,-4.676 l -9.686,-19.114 -9.686,19.114 c -1.608,3.174 -5.029,5.022 -8.553,4.624 -3.536,-0.391 -6.458,-2.937 -7.332,-6.385 l -17.298,-68.267 c -1.158,-4.568 1.608,-9.21 6.177,-10.367 4.567,-1.155 9.21,1.607 10.367,6.176 l 11.705,46.197 7.005,-13.825 c 1.454,-2.868 4.396,-4.676 7.612,-4.676 3.215,0 6.158,1.808 7.612,4.676 l 7.005,13.825 11.705,-46.197 c 1.159,-4.569 5.802,-7.333 10.367,-6.176 4.569,1.157 7.334,5.799 6.177,10.367 l -17.298,68.267 c -0.875,3.449 -3.796,5.994 -7.332,6.385 -0.311,0.035 -0.625,0.052 -0.938,0.052 z"
   id="path24"
   inkscape:connector-curvature="0" />
	<path
   style="fill:#8b7e7f"
   d="m 233.472,213.333 h -48.22 c -4.714,0 -8.533,-3.821 -8.533,-8.533 v -68.267 c 0,-4.713 3.82,-8.533 8.533,-8.533 h 48.22 c 4.714,0 8.533,3.821 8.533,8.533 0,4.712 -3.82,8.533 -8.533,8.533 h -39.687 v 51.2 h 39.687 c 4.714,0 8.533,3.821 8.533,8.533 0,4.712 -3.819,8.534 -8.533,8.534 z"
   id="path26"
   inkscape:connector-curvature="0" />
	<path
   style="fill:#8b7e7f"
   d="m 217.399,179.2 h -32.147 c -4.714,0 -8.533,-3.821 -8.533,-8.533 0,-4.712 3.82,-8.533 8.533,-8.533 h 32.147 c 4.714,0 8.533,3.821 8.533,8.533 0,4.712 -3.82,8.533 -8.533,8.533 z"
   id="path28"
   inkscape:connector-curvature="0" />
	<path
   style="fill:#8b7e7f"
   d="m 151.121,213.333 c -2.45,0 -4.839,-1.057 -6.492,-2.993 L 101.383,159.675 V 204.8 c 0,4.713 -3.82,8.533 -8.533,8.533 -4.714,0 -8.533,-3.821 -8.533,-8.533 v -68.267 c 0,-3.575 2.228,-6.77 5.581,-8.007 3.352,-1.238 7.122,-0.253 9.442,2.466 l 43.246,50.665 v -45.124 c 0,-4.713 3.82,-8.533 8.533,-8.533 4.713,0 8.533,3.821 8.533,8.533 V 204.8 c 0,3.575 -2.228,6.77 -5.581,8.007 -0.964,0.355 -1.963,0.526 -2.95,0.526 z"
   id="path30"
   inkscape:connector-curvature="0" />
</g>
<g
   id="g34"
   transform="translate(0,-444.933)">
</g>
<g
   id="g36"
   transform="translate(0,-444.933)">
</g>
<g
   id="g38"
   transform="translate(0,-444.933)">
</g>
<g
   id="g40"
   transform="translate(0,-444.933)">
</g>
<g
   id="g42"
   transform="translate(0,-444.933)">
</g>
<g
   id="g44"
   transform="translate(0,-444.933)">
</g>
<g
   id="g46"
   transform="translate(0,-444.933)">
</g>
<g
   id="g48"
   transform="translate(0,-444.933)">
</g>
<g
   id="g50"
   transform="translate(0,-444.933)">
</g>
<g
   id="g52"
   transform="translate(0,-444.933)">
</g>
<g
   id="g54"
   transform="translate(0,-444.933)">
</g>
<g
   id="g56"
   transform="translate(0,-444.933)">
</g>
<g
   id="g58"
   transform="translate(0,-444.933)">
</g>
<g
   id="g60"
   transform="translate(0,-444.933)">
</g>
<g
   id="g62"
   transform="translate(0,-444.933)">
</g>
</svg>